<svg width="73" height="73" viewBox="0 0 73 73" fill="none" xmlns="http://www.w3.org/2000/svg">
<path fill-rule="evenodd" clip-rule="evenodd" d="M5 18.7393C5 16.949 5.71116 15.2322 6.97703 13.9663C8.2429 12.7004 9.95979 11.9893 11.75 11.9893H61.25C63.0402 11.9893 64.7571 12.7004 66.023 13.9663C67.2888 15.2322 68 16.949 68 18.7393V54.7393C68 56.5295 67.2888 58.2464 66.023 59.5122C64.7571 60.7781 63.0402 61.4893 61.25 61.4893H11.75C9.95979 61.4893 8.2429 60.7781 6.97703 59.5122C5.71116 58.2464 5 56.5295 5 54.7393V18.7393ZM9.5 48.9193V54.7393C9.5 55.9813 10.508 56.9893 11.75 56.9893H61.25C61.8467 56.9893 62.419 56.7522 62.841 56.3302C63.2629 55.9083 63.5 55.336 63.5 54.7393V48.9193L55.43 40.8523C54.5862 40.0096 53.4425 39.5362 52.25 39.5362C51.0575 39.5362 49.9138 40.0096 49.07 40.8523L46.43 43.4893L49.34 46.3993C49.5611 46.6052 49.7384 46.8536 49.8613 47.1296C49.9843 47.4056 50.0504 47.7036 50.0558 48.0057C50.0611 48.3078 50.0055 48.6079 49.8924 48.888C49.7792 49.1682 49.6108 49.4227 49.3971 49.6364C49.1835 49.85 48.929 50.0185 48.6488 50.1316C48.3686 50.2448 48.0685 50.3004 47.7664 50.295C47.4643 50.2897 47.1664 50.2236 46.8904 50.1006C46.6144 49.9776 46.366 49.8003 46.16 49.5793L30.68 34.1023C29.8362 33.2596 28.6925 32.7862 27.5 32.7862C26.3075 32.7862 25.1638 33.2596 24.32 34.1023L9.5 48.9223V48.9193ZM39.875 25.4893C39.875 24.5942 40.2306 23.7357 40.8635 23.1028C41.4964 22.4698 42.3549 22.1143 43.25 22.1143C44.1451 22.1143 45.0036 22.4698 45.6365 23.1028C46.2694 23.7357 46.625 24.5942 46.625 25.4893C46.625 26.3844 46.2694 27.2428 45.6365 27.8757C45.0036 28.5087 44.1451 28.8643 43.25 28.8643C42.3549 28.8643 41.4964 28.5087 40.8635 27.8757C40.2306 27.2428 39.875 26.3844 39.875 25.4893Z" fill="black"/>
</svg>
