<svg width="28" height="32" viewBox="0 0 28 32" fill="none" xmlns="http://www.w3.org/2000/svg">
<path fill-rule="evenodd" clip-rule="evenodd" d="M24.1789 13.5936L15.5258 19.1811V17.4514L24.1789 11.864V13.5936ZM24.1789 21.9027L15.5258 27.4901V25.7605L24.1789 20.173V21.9027ZM15.5258 21.6061L21.7905 17.4226V19.1522L15.5258 23.3357V21.6061ZM25.669 6.96359L15.5499 0.908707C14.453 0.252436 13.1015 0.252436 12.0049 0.908707L1.88585 6.96359C0.788936 7.61986 0.113342 8.83269 0.113342 10.1456V22.2556C0.113342 23.5679 0.788936 24.7813 1.88585 25.4373L12.0049 31.4922C13.1015 32.1488 14.453 32.1488 15.5499 31.4922L25.669 25.4373C26.7659 24.7813 27.4415 23.5679 27.4415 22.2556V10.1456C27.4415 8.83269 26.7659 7.61986 25.669 6.96359Z" fill="white"/>
</svg>
