<svg width="169" height="28" viewBox="0 0 169 28" fill="none" xmlns="http://www.w3.org/2000/svg">
<path fill-rule="evenodd" clip-rule="evenodd" d="M22.1227 11.6877L14.1682 16.6436V15.1095L22.1227 10.1536V11.6877ZM22.1227 19.0576L14.1682 24.0135V22.4793L22.1227 17.5234V19.0576ZM14.1682 18.7946L19.9271 15.0839V16.618L14.1682 20.3287V18.7946ZM23.4925 5.80707L14.1903 0.43657C13.182 -0.145523 11.9396 -0.145523 10.9315 0.43657L1.62941 5.80707C0.621051 6.38917 0 7.46492 0 8.62939V19.3707C0 20.5346 0.621051 21.6109 1.62941 22.1927L10.9315 27.5632C11.9396 28.1456 13.182 28.1456 14.1903 27.5632L23.4925 22.1927C24.5008 21.6109 25.1219 20.5346 25.1219 19.3707V8.62939C25.1219 7.46492 24.5008 6.38917 23.4925 5.80707Z" fill="white"/>
<path fill-rule="evenodd" clip-rule="evenodd" d="M37.3304 13.4376H43.9132C43.7503 12.4389 42.5477 11.2977 40.6933 11.2977C39.1239 11.2977 37.7789 12.0314 37.3304 13.4376ZM44.1171 15.8834L46.5424 16.9225C45.829 18.6955 43.6482 20.1628 40.8153 20.1628C37.1268 20.1628 34.4774 17.9007 34.4774 14.579C34.4774 11.42 37.0859 9.01514 40.7951 9.01514C44.5044 9.01514 46.7256 11.42 46.7256 14.4769V15.3738H37.2286C37.575 16.9225 38.9812 17.8395 40.8153 17.8395C42.4052 17.8395 43.628 17.0652 44.1171 15.8834Z" fill="white"/>
<path fill-rule="evenodd" clip-rule="evenodd" d="M56.3651 15.0678L52.33 15.5163C51.0665 15.6587 50.4142 15.9644 50.4142 16.7592C50.4142 17.5745 51.209 17.9823 52.5336 17.9823C54.2864 17.9823 56.3651 17.2281 56.3651 15.8015V15.0678ZM47.6425 16.8408C47.6425 14.8639 49.3339 13.7635 51.902 13.4984L56.3651 13.0298V12.9482C56.3651 12.0519 55.5703 11.3179 53.6952 11.3179C52.1261 11.3179 50.8422 12.0109 50.4754 12.9482L48.0093 12.1127C48.6819 10.2379 51.0461 9.01514 53.7973 9.01514C57.1599 9.01514 59.1163 10.3807 59.1163 12.9888V17.2077C59.1163 17.7989 59.3814 18.0636 60.6041 17.7989V19.9387C58.2604 20.4073 57.0988 19.6532 56.6506 18.6139C55.6721 19.5309 54.062 20.1628 52.1466 20.1628C49.5788 20.1628 47.6425 19.0012 47.6425 16.8408Z" fill="white"/>
<path fill-rule="evenodd" clip-rule="evenodd" d="M67.4104 11.2974C65.4742 11.2974 63.8439 12.4389 63.8439 14.3748C63.8439 16.3313 65.4742 17.4727 67.4104 17.4727C69.3668 17.4727 71.038 16.3111 71.038 14.4155V14.3342C71.038 12.4591 69.3668 11.2974 67.4104 11.2974ZM67.1658 23.7904C64.2923 23.7904 62.0098 22.7715 61.1333 20.9781L63.3955 19.5921C63.9457 20.8151 65.3724 21.5488 67.1252 21.5488C69.1427 21.5488 70.8953 20.5703 70.8953 18.6955V18.2877C70.1414 19.0623 68.8371 19.7755 66.9008 19.7755C63.2325 19.7755 61.0722 17.3299 61.0722 14.3748C61.0722 11.4811 63.2325 9.01514 66.9008 9.01514C68.8572 9.01514 70.1414 9.70785 70.8953 10.462V9.21874H73.7486V18.4304C73.7486 21.7729 70.9158 23.7904 67.1658 23.7904Z" fill="white"/>
<path fill-rule="evenodd" clip-rule="evenodd" d="M78.1723 13.4376H84.7551C84.5921 12.4389 83.3895 11.2977 81.5352 11.2977C79.9658 11.2977 78.6207 12.0314 78.1723 13.4376ZM84.9589 15.8834L87.384 16.9225C86.6705 18.6955 84.49 20.1628 81.6572 20.1628C77.9687 20.1628 75.3193 17.9007 75.3193 14.579C75.3193 11.42 77.9277 9.01514 81.637 9.01514C85.346 9.01514 87.5674 11.42 87.5674 14.4769V15.3738H78.0705C78.4169 16.9225 79.823 17.8395 81.6572 17.8395C83.2471 17.8395 84.4698 17.0652 84.9589 15.8834Z" fill="white"/>
<path fill-rule="evenodd" clip-rule="evenodd" d="M97.2062 12.1129C96.7171 11.9903 96.4928 11.9496 95.9223 11.9496C93.5581 11.9496 91.989 12.9077 91.989 15.3737V19.9389H89.1357V9.21889H91.989V11.1142C92.9061 9.708 94.2716 9.15747 96.0241 9.15747C96.5132 9.15747 96.9005 9.21889 97.2062 9.30022V12.1129Z" fill="white"/>
<path fill-rule="evenodd" clip-rule="evenodd" d="M108.334 9.21899L110.902 16.4743L113.511 9.21899H116.445L112.227 19.9387H109.659L107.03 12.8057L104.401 19.9387H101.833L97.5937 9.21899H100.63L103.3 16.4743L105.848 9.21899H108.334Z" fill="white"/>
<path fill-rule="evenodd" clip-rule="evenodd" d="M126.065 14.579C126.065 12.5611 124.495 11.3995 122.58 11.3995C120.623 11.3995 119.074 12.5611 119.074 14.579C119.074 16.617 120.623 17.7786 122.58 17.7786C124.495 17.7786 126.065 16.617 126.065 14.579ZM128.816 14.579C128.816 17.9416 126.065 20.163 122.58 20.163C119.074 20.163 116.303 17.9416 116.303 14.579C116.303 11.2366 119.074 9.01538 122.58 9.01538C126.065 9.01538 128.816 11.2366 128.816 14.579Z" fill="white"/>
<path fill-rule="evenodd" clip-rule="evenodd" d="M138.476 12.1129C137.986 11.9903 137.762 11.9496 137.192 11.9496C134.828 11.9496 133.259 12.9077 133.259 15.3737V19.9389H130.405V9.21889H133.259V11.1142C134.175 9.708 135.541 9.15747 137.294 9.15747C137.783 9.15747 138.17 9.21889 138.476 9.30022V12.1129Z" fill="white"/>
<path fill-rule="evenodd" clip-rule="evenodd" d="M142.654 14.1712L148.442 9.21905H152.375L146.832 13.8246L152.538 19.9387H148.952L144.794 15.5368L142.654 17.3098V19.9387H139.801V5.30591H142.654V14.1712Z" fill="white"/>
<path fill-rule="evenodd" clip-rule="evenodd" d="M153.72 16.0463C154.923 17.3507 156.533 17.9416 158.387 17.9416C159.956 17.9416 160.996 17.595 160.996 16.8002C160.996 15.9852 160.018 15.9852 157.552 15.6795C154.861 15.3329 152.722 14.8642 152.722 12.5816C152.722 10.462 154.76 9.01514 158.02 9.01514C160.568 9.01514 162.565 9.89126 163.564 11.0327L161.933 12.765C161.036 11.7868 159.61 11.2161 157.878 11.2161C156.288 11.2161 155.514 11.6444 155.514 12.2759C155.514 12.9482 156.267 13.0301 158.591 13.3153C161.404 13.6415 163.829 14.049 163.829 16.5147C163.829 18.9605 161.322 20.1631 158.265 20.1631C155.676 20.1631 153.313 19.3478 152.09 17.9211L153.72 16.0463Z" fill="white"/>
</svg>
