<svg width="39" height="39" viewBox="0 0 39 39" fill="none" xmlns="http://www.w3.org/2000/svg">
<path d="M17.5405 2.5869C17.9764 0.454244 21.0236 0.454247 21.4595 2.58691L23.7326 13.7084C23.8931 14.4934 24.5066 15.1069 25.2916 15.2674L36.4131 17.5405C38.5458 17.9764 38.5458 21.0236 36.4131 21.4595L25.2916 23.7326C24.5066 23.8931 23.8931 24.5066 23.7326 25.2916L21.4595 36.4131C21.0236 38.5458 17.9764 38.5458 17.5405 36.4131L15.2674 25.2916C15.1069 24.5066 14.4934 23.8931 13.7084 23.7326L2.5869 21.4595C0.454244 21.0236 0.454247 17.9764 2.58691 17.5405L13.7084 15.2674C14.4934 15.1069 15.1069 14.4934 15.2674 13.7084L17.5405 2.5869Z" fill="url(#paint0_linear_1_1748)"/>
<defs>
<linearGradient id="paint0_linear_1_1748" x1="-26.0956" y1="-72.4706" x2="19.5" y2="46" gradientUnits="userSpaceOnUse">
<stop stop-color="#D9D9D9"/>
<stop offset="1" stop-color="#D9D9D9" stop-opacity="0"/>
</linearGradient>
</defs>
</svg>
